<svg height="20" viewBox="0 0 19 20" width="19" xmlns="http://www.w3.org/2000/svg">
    <g fill="#222" transform="translate(-73.499 -68.246)">
        <path d="m79.4 87.746h-5.4v-13.3l9-5.7 9 5.7v13.3h-5.4v-7.6h-7.2z" />
        <path
            d="m79.4 88.246h-5.4a.5.5 0 0 1 -.5-.5v-13.3a.5.5 0 0 1 .232-.422l9-5.7a.5.5 0 0 1 .535 0l9 5.7a.5.5 0 0 1 .232.422v13.3a.5.5 0 0 1 -.5.5h-5.399a.5.5 0 0 1 -.5-.5v-7.1h-6.2v7.1a.5.5 0 0 1 -.5.5zm-4.9-1h4.4v-7.1a.5.5 0 0 1 .5-.5h7.2a.5.5 0 0 1 .5.5v7.1h4.4v-12.525l-8.5-5.384-8.5 5.383z" />
    </g>
</svg>