<svg xmlns="http://www.w3.org/2000/svg" width="19" height="20.5" viewBox="0 0 19 20.5">
    <defs>
        <style>
            .cls-1 {
            fill: #222;
            }
        </style>
    </defs>
    <g id="グループ_104" data-name="グループ 104" transform="translate(-323 -809)">
        <path id="楕円形_42" data-name="楕円形 42" class="cls-1"
            d="M5.5,1A4.5,4.5,0,1,0,10,5.5,4.505,4.505,0,0,0,5.5,1m0-1A5.5,5.5,0,1,1,0,5.5,5.5,5.5,0,0,1,5.5,0Z"
            transform="translate(327 809)" />
        <path id="パス_65" data-name="パス 65" class="cls-1"
            d="M170.5,79.438a.5.5,0,0,1-.5-.5c0-3.825-3.813-6.938-8.5-6.938s-8.5,3.112-8.5,6.938a.5.5,0,0,1-1,0,7.3,7.3,0,0,1,2.818-5.645,10.883,10.883,0,0,1,13.365,0A7.3,7.3,0,0,1,171,78.938.5.5,0,0,1,170.5,79.438Z"
            transform="translate(171 750.062)" />
    </g>
</svg>
