<svg height="20" viewBox="0 0 19 20" width="19" xmlns="http://www.w3.org/2000/svg">
    <g fill="#222">
        <circle cx="9.5" cy="5.5" r="5.5" />
        <path
            d="m5.5 1a4.5 4.5 0 1 0 4.5 4.5 4.505 4.505 0 0 0 -4.5-4.5m0-1a5.5 5.5 0 1 1 -5.5 5.5 5.5 5.5 0 0 1 5.5-5.5z"
            transform="translate(4)" />
        <g transform="translate(-152 -58.938)">
            <path d="m152.5 78.938c0-4.107 4.03-7.438 9-7.438s9 3.33 9 7.438" />
            <path
                d="m171 78.938h-1c0-3.825-3.813-6.938-8.5-6.938s-8.5 3.112-8.5 6.938h-1a7.3 7.3 0 0 1 2.818-5.645 10.883 10.883 0 0 1 13.365 0 7.3 7.3 0 0 1 2.817 5.645z" />
        </g>
    </g>
</svg>